<!--?xml version="1.0" standalone="no"?-->
              <svg id="sw-js-blob-svg" viewBox="0 0 100 100" xmlns="http://www.w3.org/2000/svg" version="1.1">
                    <defs> 
                        <linearGradient id="sw-gradient" x1="0" x2="1" y1="1" y2="0">
                            <stop id="stop1" stop-color="rgba(248, 117, 55, 1)" offset="0%"></stop>
                            <stop id="stop2" stop-color="rgba(251, 168, 31, 1)" offset="100%"></stop>
                        </linearGradient>
                    </defs>
                <path fill="url(#sw-gradient)" d="M27,-31.3C34.8,-25.6,40.8,-16.9,41.4,-8.1C42,0.8,37.2,9.8,31.8,17.7C26.4,25.6,20.3,32.4,12.5,36C4.6,39.6,-5,39.9,-13.8,37.1C-22.7,34.3,-30.7,28.3,-36.3,20.2C-42,12.1,-45.1,1.8,-43.9,-8.2C-42.7,-18.2,-37.2,-27.9,-29.1,-33.5C-21,-39.2,-10.5,-40.7,-0.5,-40.1C9.6,-39.6,19.2,-37,27,-31.3Z" width="100%" height="100%" transform="translate(50 50)" stroke-width="0" style="transition: 0.3s;"></path>
              </svg>