<!--?xml version="1.0" standalone="no"?-->
              <svg id="sw-js-blob-svg" viewBox="0 0 100 100" xmlns="http://www.w3.org/2000/svg" version="1.1">
                    <defs> 
                        <linearGradient id="sw-gradient" x1="0" x2="1" y1="1" y2="0">
                            <stop id="stop1" stop-color="rgba(248, 117, 55, 1)" offset="0%"></stop>
                            <stop id="stop2" stop-color="rgba(251, 168, 31, 1)" offset="100%"></stop>
                        </linearGradient>
                    </defs>
                <path fill="url(#sw-gradient)" d="M22.3,-38.8C28.4,-35.1,32.5,-28.1,35.9,-21.1C39.3,-14.1,42,-7,42.9,0.6C43.9,8.2,43.2,16.3,39.2,22.4C35.3,28.5,28.2,32.4,21.1,35.4C14,38.3,7,40.2,-0.1,40.3C-7.2,40.5,-14.4,39,-20.7,35.6C-27,32.2,-32.4,27,-36.3,20.8C-40.3,14.6,-42.7,7.3,-42.7,0C-42.7,-7.3,-40.3,-14.6,-36.3,-20.6C-32.2,-26.5,-26.4,-31.2,-20.1,-34.8C-13.8,-38.3,-6.9,-40.8,0.6,-41.9C8.1,-42.9,16.2,-42.5,22.3,-38.8Z" width="100%" height="100%" transform="translate(50 50)" stroke-width="0" style="transition: 0.3s;"></path>
              </svg>